%TF.GenerationSoftware,KiCad,Pcbnew,(5.1.7)-1*%
%TF.CreationDate,2021-01-28T10:42:49-06:00*%
%TF.ProjectId,pinballMods,70696e62-616c-46c4-9d6f-64732e6b6963,rev?*%
%TF.SameCoordinates,Original*%
%TF.FileFunction,Copper,L1,Top*%
%TF.FilePolarity,Positive*%
%FSLAX46Y46*%
G04 Gerber Fmt 4.6, Leading zero omitted, Abs format (unit mm)*
G04 Created by KiCad (PCBNEW (5.1.7)-1) date 2021-01-28 10:42:49*
%MOMM*%
%LPD*%
G01*
G04 APERTURE LIST*
%TA.AperFunction,ComponentPad*%
%ADD10O,1.700000X1.700000*%
%TD*%
%TA.AperFunction,ComponentPad*%
%ADD11R,1.700000X1.700000*%
%TD*%
%TA.AperFunction,ComponentPad*%
%ADD12O,1.600000X1.600000*%
%TD*%
%TA.AperFunction,ComponentPad*%
%ADD13R,1.600000X1.600000*%
%TD*%
%TA.AperFunction,Conductor*%
%ADD14C,0.500000*%
%TD*%
G04 APERTURE END LIST*
D10*
%TO.P,,8*%
%TO.N,Net-(J3-Pad8)*%
X171450000Y-91440000D03*
%TO.P,,7*%
%TO.N,Net-(J3-Pad7)*%
X171450000Y-93980000D03*
%TO.P,,6*%
%TO.N,Net-(J3-Pad6)*%
X171450000Y-96520000D03*
%TO.P,,5*%
%TO.N,Net-(J3-Pad5)*%
X171450000Y-99060000D03*
%TO.P,,4*%
%TO.N,Net-(J3-Pad4)*%
X171450000Y-101600000D03*
%TO.P,,3*%
%TO.N,Net-(J3-Pad3)*%
X171450000Y-104140000D03*
%TO.P,,2*%
%TO.N,Net-(J3-Pad2)*%
X171450000Y-106680000D03*
D11*
%TO.P,,1*%
%TO.N,Net-(J3-Pad1)*%
X171450000Y-109220000D03*
%TD*%
D12*
%TO.P,,16*%
%TO.N,Net-(J2-Pad16)*%
X162560000Y-91440000D03*
%TO.P,,8*%
%TO.N,Net-(J2-Pad8)*%
X154940000Y-109220000D03*
%TO.P,,15*%
%TO.N,Net-(J2-Pad15)*%
X162560000Y-93980000D03*
%TO.P,,7*%
%TO.N,Net-(J2-Pad7)*%
X154940000Y-106680000D03*
%TO.P,,14*%
%TO.N,Net-(J2-Pad14)*%
X162560000Y-96520000D03*
%TO.P,,6*%
%TO.N,Net-(J2-Pad6)*%
X154940000Y-104140000D03*
%TO.P,,13*%
%TO.N,Net-(J2-Pad13)*%
X162560000Y-99060000D03*
%TO.P,,5*%
%TO.N,Net-(J2-Pad5)*%
X154940000Y-101600000D03*
%TO.P,,12*%
%TO.N,Net-(J2-Pad12)*%
X162560000Y-101600000D03*
%TO.P,,4*%
%TO.N,Net-(J2-Pad4)*%
X154940000Y-99060000D03*
%TO.P,,11*%
%TO.N,Net-(J2-Pad11)*%
X162560000Y-104140000D03*
%TO.P,,3*%
%TO.N,Net-(J2-Pad3)*%
X154940000Y-96520000D03*
%TO.P,,10*%
%TO.N,Net-(J2-Pad10)*%
X162560000Y-106680000D03*
%TO.P,,2*%
%TO.N,Net-(J2-Pad2)*%
X154940000Y-93980000D03*
%TO.P,,9*%
%TO.N,Net-(J2-Pad9)*%
X162560000Y-109220000D03*
D13*
%TO.P,,1*%
%TO.N,Net-(J2-Pad1)*%
X154940000Y-91440000D03*
%TD*%
D10*
%TO.P,,8*%
%TO.N,Net-(J1-Pad8)*%
X146050000Y-109220000D03*
%TO.P,,7*%
%TO.N,Net-(J1-Pad7)*%
X146050000Y-106680000D03*
%TO.P,,6*%
%TO.N,Net-(J1-Pad6)*%
X146050000Y-104140000D03*
%TO.P,,5*%
%TO.N,Net-(J1-Pad5)*%
X146050000Y-101600000D03*
%TO.P,,4*%
%TO.N,Net-(J1-Pad4)*%
X146050000Y-99060000D03*
%TO.P,,3*%
%TO.N,Net-(J1-Pad3)*%
X146050000Y-96520000D03*
%TO.P,,2*%
%TO.N,Net-(J1-Pad2)*%
X146050000Y-93980000D03*
D11*
%TO.P,,1*%
%TO.N,Net-(J1-Pad1)*%
X146050000Y-91440000D03*
%TD*%
%TO.P,,2*%
%TO.N,Net-(J3-Pad1)*%
%TA.AperFunction,SMDPad,CuDef*%
G36*
G01*
X167770000Y-109670001D02*
X167770000Y-108769999D01*
G75*
G02*
X168019999Y-108520000I249999J0D01*
G01*
X168720001Y-108520000D01*
G75*
G02*
X168970000Y-108769999I0J-249999D01*
G01*
X168970000Y-109670001D01*
G75*
G02*
X168720001Y-109920000I-249999J0D01*
G01*
X168019999Y-109920000D01*
G75*
G02*
X167770000Y-109670001I0J249999D01*
G01*
G37*
%TD.AperFunction*%
%TO.P,,1*%
%TO.N,Net-(J2-Pad9)*%
%TA.AperFunction,SMDPad,CuDef*%
G36*
G01*
X165770000Y-109670001D02*
X165770000Y-108769999D01*
G75*
G02*
X166019999Y-108520000I249999J0D01*
G01*
X166720001Y-108520000D01*
G75*
G02*
X166970000Y-108769999I0J-249999D01*
G01*
X166970000Y-109670001D01*
G75*
G02*
X166720001Y-109920000I-249999J0D01*
G01*
X166019999Y-109920000D01*
G75*
G02*
X165770000Y-109670001I0J249999D01*
G01*
G37*
%TD.AperFunction*%
%TD*%
%TO.P,,2*%
%TO.N,Net-(J2-Pad8)*%
%TA.AperFunction,SMDPad,CuDef*%
G36*
G01*
X150530000Y-109670001D02*
X150530000Y-108769999D01*
G75*
G02*
X150779999Y-108520000I249999J0D01*
G01*
X151480001Y-108520000D01*
G75*
G02*
X151730000Y-108769999I0J-249999D01*
G01*
X151730000Y-109670001D01*
G75*
G02*
X151480001Y-109920000I-249999J0D01*
G01*
X150779999Y-109920000D01*
G75*
G02*
X150530000Y-109670001I0J249999D01*
G01*
G37*
%TD.AperFunction*%
%TO.P,,1*%
%TO.N,Net-(J1-Pad8)*%
%TA.AperFunction,SMDPad,CuDef*%
G36*
G01*
X148530000Y-109670001D02*
X148530000Y-108769999D01*
G75*
G02*
X148779999Y-108520000I249999J0D01*
G01*
X149480001Y-108520000D01*
G75*
G02*
X149730000Y-108769999I0J-249999D01*
G01*
X149730000Y-109670001D01*
G75*
G02*
X149480001Y-109920000I-249999J0D01*
G01*
X148779999Y-109920000D01*
G75*
G02*
X148530000Y-109670001I0J249999D01*
G01*
G37*
%TD.AperFunction*%
%TD*%
%TO.P,,2*%
%TO.N,Net-(J3-Pad2)*%
%TA.AperFunction,SMDPad,CuDef*%
G36*
G01*
X167770000Y-107130001D02*
X167770000Y-106229999D01*
G75*
G02*
X168019999Y-105980000I249999J0D01*
G01*
X168720001Y-105980000D01*
G75*
G02*
X168970000Y-106229999I0J-249999D01*
G01*
X168970000Y-107130001D01*
G75*
G02*
X168720001Y-107380000I-249999J0D01*
G01*
X168019999Y-107380000D01*
G75*
G02*
X167770000Y-107130001I0J249999D01*
G01*
G37*
%TD.AperFunction*%
%TO.P,,1*%
%TO.N,Net-(J2-Pad10)*%
%TA.AperFunction,SMDPad,CuDef*%
G36*
G01*
X165770000Y-107130001D02*
X165770000Y-106229999D01*
G75*
G02*
X166019999Y-105980000I249999J0D01*
G01*
X166720001Y-105980000D01*
G75*
G02*
X166970000Y-106229999I0J-249999D01*
G01*
X166970000Y-107130001D01*
G75*
G02*
X166720001Y-107380000I-249999J0D01*
G01*
X166019999Y-107380000D01*
G75*
G02*
X165770000Y-107130001I0J249999D01*
G01*
G37*
%TD.AperFunction*%
%TD*%
%TO.P,,2*%
%TO.N,Net-(J3-Pad3)*%
%TA.AperFunction,SMDPad,CuDef*%
G36*
G01*
X167770000Y-104590001D02*
X167770000Y-103689999D01*
G75*
G02*
X168019999Y-103440000I249999J0D01*
G01*
X168720001Y-103440000D01*
G75*
G02*
X168970000Y-103689999I0J-249999D01*
G01*
X168970000Y-104590001D01*
G75*
G02*
X168720001Y-104840000I-249999J0D01*
G01*
X168019999Y-104840000D01*
G75*
G02*
X167770000Y-104590001I0J249999D01*
G01*
G37*
%TD.AperFunction*%
%TO.P,,1*%
%TO.N,Net-(J2-Pad11)*%
%TA.AperFunction,SMDPad,CuDef*%
G36*
G01*
X165770000Y-104590001D02*
X165770000Y-103689999D01*
G75*
G02*
X166019999Y-103440000I249999J0D01*
G01*
X166720001Y-103440000D01*
G75*
G02*
X166970000Y-103689999I0J-249999D01*
G01*
X166970000Y-104590001D01*
G75*
G02*
X166720001Y-104840000I-249999J0D01*
G01*
X166019999Y-104840000D01*
G75*
G02*
X165770000Y-104590001I0J249999D01*
G01*
G37*
%TD.AperFunction*%
%TD*%
%TO.P,,2*%
%TO.N,Net-(J3-Pad4)*%
%TA.AperFunction,SMDPad,CuDef*%
G36*
G01*
X167770000Y-102050001D02*
X167770000Y-101149999D01*
G75*
G02*
X168019999Y-100900000I249999J0D01*
G01*
X168720001Y-100900000D01*
G75*
G02*
X168970000Y-101149999I0J-249999D01*
G01*
X168970000Y-102050001D01*
G75*
G02*
X168720001Y-102300000I-249999J0D01*
G01*
X168019999Y-102300000D01*
G75*
G02*
X167770000Y-102050001I0J249999D01*
G01*
G37*
%TD.AperFunction*%
%TO.P,,1*%
%TO.N,Net-(J2-Pad12)*%
%TA.AperFunction,SMDPad,CuDef*%
G36*
G01*
X165770000Y-102050001D02*
X165770000Y-101149999D01*
G75*
G02*
X166019999Y-100900000I249999J0D01*
G01*
X166720001Y-100900000D01*
G75*
G02*
X166970000Y-101149999I0J-249999D01*
G01*
X166970000Y-102050001D01*
G75*
G02*
X166720001Y-102300000I-249999J0D01*
G01*
X166019999Y-102300000D01*
G75*
G02*
X165770000Y-102050001I0J249999D01*
G01*
G37*
%TD.AperFunction*%
%TD*%
%TO.P,,2*%
%TO.N,Net-(J3-Pad5)*%
%TA.AperFunction,SMDPad,CuDef*%
G36*
G01*
X167770000Y-99510001D02*
X167770000Y-98609999D01*
G75*
G02*
X168019999Y-98360000I249999J0D01*
G01*
X168720001Y-98360000D01*
G75*
G02*
X168970000Y-98609999I0J-249999D01*
G01*
X168970000Y-99510001D01*
G75*
G02*
X168720001Y-99760000I-249999J0D01*
G01*
X168019999Y-99760000D01*
G75*
G02*
X167770000Y-99510001I0J249999D01*
G01*
G37*
%TD.AperFunction*%
%TO.P,,1*%
%TO.N,Net-(J2-Pad13)*%
%TA.AperFunction,SMDPad,CuDef*%
G36*
G01*
X165770000Y-99510001D02*
X165770000Y-98609999D01*
G75*
G02*
X166019999Y-98360000I249999J0D01*
G01*
X166720001Y-98360000D01*
G75*
G02*
X166970000Y-98609999I0J-249999D01*
G01*
X166970000Y-99510001D01*
G75*
G02*
X166720001Y-99760000I-249999J0D01*
G01*
X166019999Y-99760000D01*
G75*
G02*
X165770000Y-99510001I0J249999D01*
G01*
G37*
%TD.AperFunction*%
%TD*%
%TO.P,,2*%
%TO.N,Net-(J3-Pad6)*%
%TA.AperFunction,SMDPad,CuDef*%
G36*
G01*
X167770000Y-96970001D02*
X167770000Y-96069999D01*
G75*
G02*
X168019999Y-95820000I249999J0D01*
G01*
X168720001Y-95820000D01*
G75*
G02*
X168970000Y-96069999I0J-249999D01*
G01*
X168970000Y-96970001D01*
G75*
G02*
X168720001Y-97220000I-249999J0D01*
G01*
X168019999Y-97220000D01*
G75*
G02*
X167770000Y-96970001I0J249999D01*
G01*
G37*
%TD.AperFunction*%
%TO.P,,1*%
%TO.N,Net-(J2-Pad14)*%
%TA.AperFunction,SMDPad,CuDef*%
G36*
G01*
X165770000Y-96970001D02*
X165770000Y-96069999D01*
G75*
G02*
X166019999Y-95820000I249999J0D01*
G01*
X166720001Y-95820000D01*
G75*
G02*
X166970000Y-96069999I0J-249999D01*
G01*
X166970000Y-96970001D01*
G75*
G02*
X166720001Y-97220000I-249999J0D01*
G01*
X166019999Y-97220000D01*
G75*
G02*
X165770000Y-96970001I0J249999D01*
G01*
G37*
%TD.AperFunction*%
%TD*%
%TO.P,,2*%
%TO.N,Net-(J3-Pad7)*%
%TA.AperFunction,SMDPad,CuDef*%
G36*
G01*
X167770000Y-94430001D02*
X167770000Y-93529999D01*
G75*
G02*
X168019999Y-93280000I249999J0D01*
G01*
X168720001Y-93280000D01*
G75*
G02*
X168970000Y-93529999I0J-249999D01*
G01*
X168970000Y-94430001D01*
G75*
G02*
X168720001Y-94680000I-249999J0D01*
G01*
X168019999Y-94680000D01*
G75*
G02*
X167770000Y-94430001I0J249999D01*
G01*
G37*
%TD.AperFunction*%
%TO.P,,1*%
%TO.N,Net-(J2-Pad15)*%
%TA.AperFunction,SMDPad,CuDef*%
G36*
G01*
X165770000Y-94430001D02*
X165770000Y-93529999D01*
G75*
G02*
X166019999Y-93280000I249999J0D01*
G01*
X166720001Y-93280000D01*
G75*
G02*
X166970000Y-93529999I0J-249999D01*
G01*
X166970000Y-94430001D01*
G75*
G02*
X166720001Y-94680000I-249999J0D01*
G01*
X166019999Y-94680000D01*
G75*
G02*
X165770000Y-94430001I0J249999D01*
G01*
G37*
%TD.AperFunction*%
%TD*%
%TO.P,,2*%
%TO.N,Net-(J3-Pad8)*%
%TA.AperFunction,SMDPad,CuDef*%
G36*
G01*
X167770000Y-91890001D02*
X167770000Y-90989999D01*
G75*
G02*
X168019999Y-90740000I249999J0D01*
G01*
X168720001Y-90740000D01*
G75*
G02*
X168970000Y-90989999I0J-249999D01*
G01*
X168970000Y-91890001D01*
G75*
G02*
X168720001Y-92140000I-249999J0D01*
G01*
X168019999Y-92140000D01*
G75*
G02*
X167770000Y-91890001I0J249999D01*
G01*
G37*
%TD.AperFunction*%
%TO.P,,1*%
%TO.N,Net-(J2-Pad16)*%
%TA.AperFunction,SMDPad,CuDef*%
G36*
G01*
X165770000Y-91890001D02*
X165770000Y-90989999D01*
G75*
G02*
X166019999Y-90740000I249999J0D01*
G01*
X166720001Y-90740000D01*
G75*
G02*
X166970000Y-90989999I0J-249999D01*
G01*
X166970000Y-91890001D01*
G75*
G02*
X166720001Y-92140000I-249999J0D01*
G01*
X166019999Y-92140000D01*
G75*
G02*
X165770000Y-91890001I0J249999D01*
G01*
G37*
%TD.AperFunction*%
%TD*%
%TO.P,,2*%
%TO.N,Net-(J2-Pad7)*%
%TA.AperFunction,SMDPad,CuDef*%
G36*
G01*
X150530000Y-107130001D02*
X150530000Y-106229999D01*
G75*
G02*
X150779999Y-105980000I249999J0D01*
G01*
X151480001Y-105980000D01*
G75*
G02*
X151730000Y-106229999I0J-249999D01*
G01*
X151730000Y-107130001D01*
G75*
G02*
X151480001Y-107380000I-249999J0D01*
G01*
X150779999Y-107380000D01*
G75*
G02*
X150530000Y-107130001I0J249999D01*
G01*
G37*
%TD.AperFunction*%
%TO.P,,1*%
%TO.N,Net-(J1-Pad7)*%
%TA.AperFunction,SMDPad,CuDef*%
G36*
G01*
X148530000Y-107130001D02*
X148530000Y-106229999D01*
G75*
G02*
X148779999Y-105980000I249999J0D01*
G01*
X149480001Y-105980000D01*
G75*
G02*
X149730000Y-106229999I0J-249999D01*
G01*
X149730000Y-107130001D01*
G75*
G02*
X149480001Y-107380000I-249999J0D01*
G01*
X148779999Y-107380000D01*
G75*
G02*
X148530000Y-107130001I0J249999D01*
G01*
G37*
%TD.AperFunction*%
%TD*%
%TO.P,,2*%
%TO.N,Net-(J2-Pad6)*%
%TA.AperFunction,SMDPad,CuDef*%
G36*
G01*
X150530000Y-104590001D02*
X150530000Y-103689999D01*
G75*
G02*
X150779999Y-103440000I249999J0D01*
G01*
X151480001Y-103440000D01*
G75*
G02*
X151730000Y-103689999I0J-249999D01*
G01*
X151730000Y-104590001D01*
G75*
G02*
X151480001Y-104840000I-249999J0D01*
G01*
X150779999Y-104840000D01*
G75*
G02*
X150530000Y-104590001I0J249999D01*
G01*
G37*
%TD.AperFunction*%
%TO.P,,1*%
%TO.N,Net-(J1-Pad6)*%
%TA.AperFunction,SMDPad,CuDef*%
G36*
G01*
X148530000Y-104590001D02*
X148530000Y-103689999D01*
G75*
G02*
X148779999Y-103440000I249999J0D01*
G01*
X149480001Y-103440000D01*
G75*
G02*
X149730000Y-103689999I0J-249999D01*
G01*
X149730000Y-104590001D01*
G75*
G02*
X149480001Y-104840000I-249999J0D01*
G01*
X148779999Y-104840000D01*
G75*
G02*
X148530000Y-104590001I0J249999D01*
G01*
G37*
%TD.AperFunction*%
%TD*%
%TO.P,,2*%
%TO.N,Net-(J2-Pad5)*%
%TA.AperFunction,SMDPad,CuDef*%
G36*
G01*
X150530000Y-102050001D02*
X150530000Y-101149999D01*
G75*
G02*
X150779999Y-100900000I249999J0D01*
G01*
X151480001Y-100900000D01*
G75*
G02*
X151730000Y-101149999I0J-249999D01*
G01*
X151730000Y-102050001D01*
G75*
G02*
X151480001Y-102300000I-249999J0D01*
G01*
X150779999Y-102300000D01*
G75*
G02*
X150530000Y-102050001I0J249999D01*
G01*
G37*
%TD.AperFunction*%
%TO.P,,1*%
%TO.N,Net-(J1-Pad5)*%
%TA.AperFunction,SMDPad,CuDef*%
G36*
G01*
X148530000Y-102050001D02*
X148530000Y-101149999D01*
G75*
G02*
X148779999Y-100900000I249999J0D01*
G01*
X149480001Y-100900000D01*
G75*
G02*
X149730000Y-101149999I0J-249999D01*
G01*
X149730000Y-102050001D01*
G75*
G02*
X149480001Y-102300000I-249999J0D01*
G01*
X148779999Y-102300000D01*
G75*
G02*
X148530000Y-102050001I0J249999D01*
G01*
G37*
%TD.AperFunction*%
%TD*%
%TO.P,,2*%
%TO.N,Net-(J2-Pad4)*%
%TA.AperFunction,SMDPad,CuDef*%
G36*
G01*
X150530000Y-99510001D02*
X150530000Y-98609999D01*
G75*
G02*
X150779999Y-98360000I249999J0D01*
G01*
X151480001Y-98360000D01*
G75*
G02*
X151730000Y-98609999I0J-249999D01*
G01*
X151730000Y-99510001D01*
G75*
G02*
X151480001Y-99760000I-249999J0D01*
G01*
X150779999Y-99760000D01*
G75*
G02*
X150530000Y-99510001I0J249999D01*
G01*
G37*
%TD.AperFunction*%
%TO.P,,1*%
%TO.N,Net-(J1-Pad4)*%
%TA.AperFunction,SMDPad,CuDef*%
G36*
G01*
X148530000Y-99510001D02*
X148530000Y-98609999D01*
G75*
G02*
X148779999Y-98360000I249999J0D01*
G01*
X149480001Y-98360000D01*
G75*
G02*
X149730000Y-98609999I0J-249999D01*
G01*
X149730000Y-99510001D01*
G75*
G02*
X149480001Y-99760000I-249999J0D01*
G01*
X148779999Y-99760000D01*
G75*
G02*
X148530000Y-99510001I0J249999D01*
G01*
G37*
%TD.AperFunction*%
%TD*%
%TO.P,,2*%
%TO.N,Net-(J2-Pad3)*%
%TA.AperFunction,SMDPad,CuDef*%
G36*
G01*
X150530000Y-96970001D02*
X150530000Y-96069999D01*
G75*
G02*
X150779999Y-95820000I249999J0D01*
G01*
X151480001Y-95820000D01*
G75*
G02*
X151730000Y-96069999I0J-249999D01*
G01*
X151730000Y-96970001D01*
G75*
G02*
X151480001Y-97220000I-249999J0D01*
G01*
X150779999Y-97220000D01*
G75*
G02*
X150530000Y-96970001I0J249999D01*
G01*
G37*
%TD.AperFunction*%
%TO.P,,1*%
%TO.N,Net-(J1-Pad3)*%
%TA.AperFunction,SMDPad,CuDef*%
G36*
G01*
X148530000Y-96970001D02*
X148530000Y-96069999D01*
G75*
G02*
X148779999Y-95820000I249999J0D01*
G01*
X149480001Y-95820000D01*
G75*
G02*
X149730000Y-96069999I0J-249999D01*
G01*
X149730000Y-96970001D01*
G75*
G02*
X149480001Y-97220000I-249999J0D01*
G01*
X148779999Y-97220000D01*
G75*
G02*
X148530000Y-96970001I0J249999D01*
G01*
G37*
%TD.AperFunction*%
%TD*%
%TO.P,,2*%
%TO.N,Net-(J2-Pad2)*%
%TA.AperFunction,SMDPad,CuDef*%
G36*
G01*
X150530000Y-94430001D02*
X150530000Y-93529999D01*
G75*
G02*
X150779999Y-93280000I249999J0D01*
G01*
X151480001Y-93280000D01*
G75*
G02*
X151730000Y-93529999I0J-249999D01*
G01*
X151730000Y-94430001D01*
G75*
G02*
X151480001Y-94680000I-249999J0D01*
G01*
X150779999Y-94680000D01*
G75*
G02*
X150530000Y-94430001I0J249999D01*
G01*
G37*
%TD.AperFunction*%
%TO.P,,1*%
%TO.N,Net-(J1-Pad2)*%
%TA.AperFunction,SMDPad,CuDef*%
G36*
G01*
X148530000Y-94430001D02*
X148530000Y-93529999D01*
G75*
G02*
X148779999Y-93280000I249999J0D01*
G01*
X149480001Y-93280000D01*
G75*
G02*
X149730000Y-93529999I0J-249999D01*
G01*
X149730000Y-94430001D01*
G75*
G02*
X149480001Y-94680000I-249999J0D01*
G01*
X148779999Y-94680000D01*
G75*
G02*
X148530000Y-94430001I0J249999D01*
G01*
G37*
%TD.AperFunction*%
%TD*%
%TO.P,,2*%
%TO.N,Net-(J2-Pad1)*%
%TA.AperFunction,SMDPad,CuDef*%
G36*
G01*
X150530000Y-91890001D02*
X150530000Y-90989999D01*
G75*
G02*
X150779999Y-90740000I249999J0D01*
G01*
X151480001Y-90740000D01*
G75*
G02*
X151730000Y-90989999I0J-249999D01*
G01*
X151730000Y-91890001D01*
G75*
G02*
X151480001Y-92140000I-249999J0D01*
G01*
X150779999Y-92140000D01*
G75*
G02*
X150530000Y-91890001I0J249999D01*
G01*
G37*
%TD.AperFunction*%
%TO.P,,1*%
%TO.N,Net-(J1-Pad1)*%
%TA.AperFunction,SMDPad,CuDef*%
G36*
G01*
X148530000Y-91890001D02*
X148530000Y-90989999D01*
G75*
G02*
X148779999Y-90740000I249999J0D01*
G01*
X149480001Y-90740000D01*
G75*
G02*
X149730000Y-90989999I0J-249999D01*
G01*
X149730000Y-91890001D01*
G75*
G02*
X149480001Y-92140000I-249999J0D01*
G01*
X148779999Y-92140000D01*
G75*
G02*
X148530000Y-91890001I0J249999D01*
G01*
G37*
%TD.AperFunction*%
%TD*%
D14*
%TO.N,Net-(J1-Pad7)*%
X146050000Y-106680000D02*
X149130000Y-106680000D01*
%TO.N,Net-(J1-Pad6)*%
X149130000Y-104140000D02*
X146050000Y-104140000D01*
%TO.N,Net-(J1-Pad5)*%
X146050000Y-101600000D02*
X149130000Y-101600000D01*
%TO.N,Net-(J1-Pad4)*%
X149130000Y-99060000D02*
X146050000Y-99060000D01*
%TO.N,Net-(J1-Pad3)*%
X146050000Y-96520000D02*
X149130000Y-96520000D01*
%TO.N,Net-(J1-Pad2)*%
X149130000Y-93980000D02*
X146050000Y-93980000D01*
%TO.N,Net-(J1-Pad1)*%
X146050000Y-91440000D02*
X149130000Y-91440000D01*
%TO.N,Net-(J2-Pad14)*%
X166370000Y-96520000D02*
X162560000Y-96520000D01*
%TO.N,Net-(J2-Pad7)*%
X151130000Y-106680000D02*
X154940000Y-106680000D01*
%TO.N,Net-(J2-Pad13)*%
X166370000Y-99060000D02*
X162560000Y-99060000D01*
%TO.N,Net-(J2-Pad6)*%
X154940000Y-104140000D02*
X151130000Y-104140000D01*
%TO.N,Net-(J2-Pad12)*%
X166370000Y-101600000D02*
X162560000Y-101600000D01*
%TO.N,Net-(J2-Pad5)*%
X151130000Y-101600000D02*
X154940000Y-101600000D01*
%TO.N,Net-(J2-Pad11)*%
X166370000Y-104140000D02*
X162560000Y-104140000D01*
%TO.N,Net-(J2-Pad4)*%
X154940000Y-99060000D02*
X151130000Y-99060000D01*
%TO.N,Net-(J2-Pad10)*%
X166370000Y-106680000D02*
X162560000Y-106680000D01*
%TO.N,Net-(J2-Pad3)*%
X151130000Y-96520000D02*
X154940000Y-96520000D01*
%TO.N,Net-(J2-Pad9)*%
X166370000Y-109220000D02*
X162560000Y-109220000D01*
%TO.N,Net-(J2-Pad2)*%
X154940000Y-93980000D02*
X151130000Y-93980000D01*
%TO.N,Net-(J2-Pad8)*%
X154940000Y-109220000D02*
X151130000Y-109220000D01*
%TO.N,Net-(J2-Pad1)*%
X151130000Y-91440000D02*
X154940000Y-91440000D01*
%TO.N,Net-(J3-Pad7)*%
X168370000Y-93980000D02*
X171450000Y-93980000D01*
%TO.N,Net-(J3-Pad6)*%
X168370000Y-96520000D02*
X171450000Y-96520000D01*
%TO.N,Net-(J3-Pad5)*%
X168370000Y-99060000D02*
X171450000Y-99060000D01*
%TO.N,Net-(J3-Pad4)*%
X168370000Y-101600000D02*
X171450000Y-101600000D01*
%TO.N,Net-(J3-Pad3)*%
X168370000Y-104140000D02*
X171450000Y-104140000D01*
%TO.N,Net-(J3-Pad2)*%
X168370000Y-106680000D02*
X171450000Y-106680000D01*
%TO.N,Net-(J3-Pad1)*%
X168370000Y-109220000D02*
X171450000Y-109220000D01*
%TO.N,Net-(J1-Pad8)*%
X149130000Y-109220000D02*
X146050000Y-109220000D01*
%TO.N,Net-(J3-Pad8)*%
X168370000Y-91440000D02*
X171450000Y-91440000D01*
%TO.N,Net-(J2-Pad16)*%
X162560000Y-91440000D02*
X166370000Y-91440000D01*
%TO.N,Net-(J2-Pad15)*%
X166370000Y-93980000D02*
X162560000Y-93980000D01*
%TD*%
M02*
