%TF.GenerationSoftware,KiCad,Pcbnew,(5.1.7)-1*%
%TF.CreationDate,2021-01-28T10:42:50-06:00*%
%TF.ProjectId,pinballMods,70696e62-616c-46c4-9d6f-64732e6b6963,rev?*%
%TF.SameCoordinates,Original*%
%TF.FileFunction,Legend,Top*%
%TF.FilePolarity,Positive*%
%FSLAX46Y46*%
G04 Gerber Fmt 4.6, Leading zero omitted, Abs format (unit mm)*
G04 Created by KiCad (PCBNEW (5.1.7)-1) date 2021-01-28 10:42:50*
%MOMM*%
%LPD*%
G01*
G04 APERTURE LIST*
%ADD10C,0.250000*%
%ADD11C,0.120000*%
%ADD12C,0.150000*%
G04 APERTURE END LIST*
D10*
X164909523Y-90622380D02*
X164338095Y-90622380D01*
X164623809Y-90622380D02*
X164623809Y-89622380D01*
X164528571Y-89765238D01*
X164433333Y-89860476D01*
X164338095Y-89908095D01*
X165766666Y-89622380D02*
X165576190Y-89622380D01*
X165480952Y-89670000D01*
X165433333Y-89717619D01*
X165338095Y-89860476D01*
X165290476Y-90050952D01*
X165290476Y-90431904D01*
X165338095Y-90527142D01*
X165385714Y-90574761D01*
X165480952Y-90622380D01*
X165671428Y-90622380D01*
X165766666Y-90574761D01*
X165814285Y-90527142D01*
X165861904Y-90431904D01*
X165861904Y-90193809D01*
X165814285Y-90098571D01*
X165766666Y-90050952D01*
X165671428Y-90003333D01*
X165480952Y-90003333D01*
X165385714Y-90050952D01*
X165338095Y-90098571D01*
X165290476Y-90193809D01*
X164909523Y-93162380D02*
X164338095Y-93162380D01*
X164623809Y-93162380D02*
X164623809Y-92162380D01*
X164528571Y-92305238D01*
X164433333Y-92400476D01*
X164338095Y-92448095D01*
X165814285Y-92162380D02*
X165338095Y-92162380D01*
X165290476Y-92638571D01*
X165338095Y-92590952D01*
X165433333Y-92543333D01*
X165671428Y-92543333D01*
X165766666Y-92590952D01*
X165814285Y-92638571D01*
X165861904Y-92733809D01*
X165861904Y-92971904D01*
X165814285Y-93067142D01*
X165766666Y-93114761D01*
X165671428Y-93162380D01*
X165433333Y-93162380D01*
X165338095Y-93114761D01*
X165290476Y-93067142D01*
X164909523Y-95702380D02*
X164338095Y-95702380D01*
X164623809Y-95702380D02*
X164623809Y-94702380D01*
X164528571Y-94845238D01*
X164433333Y-94940476D01*
X164338095Y-94988095D01*
X165766666Y-95035714D02*
X165766666Y-95702380D01*
X165528571Y-94654761D02*
X165290476Y-95369047D01*
X165909523Y-95369047D01*
X164909523Y-98242380D02*
X164338095Y-98242380D01*
X164623809Y-98242380D02*
X164623809Y-97242380D01*
X164528571Y-97385238D01*
X164433333Y-97480476D01*
X164338095Y-97528095D01*
X165242857Y-97242380D02*
X165861904Y-97242380D01*
X165528571Y-97623333D01*
X165671428Y-97623333D01*
X165766666Y-97670952D01*
X165814285Y-97718571D01*
X165861904Y-97813809D01*
X165861904Y-98051904D01*
X165814285Y-98147142D01*
X165766666Y-98194761D01*
X165671428Y-98242380D01*
X165385714Y-98242380D01*
X165290476Y-98194761D01*
X165242857Y-98147142D01*
X164909523Y-100782380D02*
X164338095Y-100782380D01*
X164623809Y-100782380D02*
X164623809Y-99782380D01*
X164528571Y-99925238D01*
X164433333Y-100020476D01*
X164338095Y-100068095D01*
X165290476Y-99877619D02*
X165338095Y-99830000D01*
X165433333Y-99782380D01*
X165671428Y-99782380D01*
X165766666Y-99830000D01*
X165814285Y-99877619D01*
X165861904Y-99972857D01*
X165861904Y-100068095D01*
X165814285Y-100210952D01*
X165242857Y-100782380D01*
X165861904Y-100782380D01*
X164909523Y-103322380D02*
X164338095Y-103322380D01*
X164623809Y-103322380D02*
X164623809Y-102322380D01*
X164528571Y-102465238D01*
X164433333Y-102560476D01*
X164338095Y-102608095D01*
X165861904Y-103322380D02*
X165290476Y-103322380D01*
X165576190Y-103322380D02*
X165576190Y-102322380D01*
X165480952Y-102465238D01*
X165385714Y-102560476D01*
X165290476Y-102608095D01*
X164909523Y-105862380D02*
X164338095Y-105862380D01*
X164623809Y-105862380D02*
X164623809Y-104862380D01*
X164528571Y-105005238D01*
X164433333Y-105100476D01*
X164338095Y-105148095D01*
X165528571Y-104862380D02*
X165623809Y-104862380D01*
X165719047Y-104910000D01*
X165766666Y-104957619D01*
X165814285Y-105052857D01*
X165861904Y-105243333D01*
X165861904Y-105481428D01*
X165814285Y-105671904D01*
X165766666Y-105767142D01*
X165719047Y-105814761D01*
X165623809Y-105862380D01*
X165528571Y-105862380D01*
X165433333Y-105814761D01*
X165385714Y-105767142D01*
X165338095Y-105671904D01*
X165290476Y-105481428D01*
X165290476Y-105243333D01*
X165338095Y-105052857D01*
X165385714Y-104957619D01*
X165433333Y-104910000D01*
X165528571Y-104862380D01*
X164909523Y-108402380D02*
X165100000Y-108402380D01*
X165195238Y-108354761D01*
X165242857Y-108307142D01*
X165338095Y-108164285D01*
X165385714Y-107973809D01*
X165385714Y-107592857D01*
X165338095Y-107497619D01*
X165290476Y-107450000D01*
X165195238Y-107402380D01*
X165004761Y-107402380D01*
X164909523Y-107450000D01*
X164861904Y-107497619D01*
X164814285Y-107592857D01*
X164814285Y-107830952D01*
X164861904Y-107926190D01*
X164909523Y-107973809D01*
X165004761Y-108021428D01*
X165195238Y-108021428D01*
X165290476Y-107973809D01*
X165338095Y-107926190D01*
X165385714Y-107830952D01*
X152304761Y-107830952D02*
X152209523Y-107783333D01*
X152161904Y-107735714D01*
X152114285Y-107640476D01*
X152114285Y-107592857D01*
X152161904Y-107497619D01*
X152209523Y-107450000D01*
X152304761Y-107402380D01*
X152495238Y-107402380D01*
X152590476Y-107450000D01*
X152638095Y-107497619D01*
X152685714Y-107592857D01*
X152685714Y-107640476D01*
X152638095Y-107735714D01*
X152590476Y-107783333D01*
X152495238Y-107830952D01*
X152304761Y-107830952D01*
X152209523Y-107878571D01*
X152161904Y-107926190D01*
X152114285Y-108021428D01*
X152114285Y-108211904D01*
X152161904Y-108307142D01*
X152209523Y-108354761D01*
X152304761Y-108402380D01*
X152495238Y-108402380D01*
X152590476Y-108354761D01*
X152638095Y-108307142D01*
X152685714Y-108211904D01*
X152685714Y-108021428D01*
X152638095Y-107926190D01*
X152590476Y-107878571D01*
X152495238Y-107830952D01*
X152066666Y-104862380D02*
X152733333Y-104862380D01*
X152304761Y-105862380D01*
X152590476Y-102322380D02*
X152400000Y-102322380D01*
X152304761Y-102370000D01*
X152257142Y-102417619D01*
X152161904Y-102560476D01*
X152114285Y-102750952D01*
X152114285Y-103131904D01*
X152161904Y-103227142D01*
X152209523Y-103274761D01*
X152304761Y-103322380D01*
X152495238Y-103322380D01*
X152590476Y-103274761D01*
X152638095Y-103227142D01*
X152685714Y-103131904D01*
X152685714Y-102893809D01*
X152638095Y-102798571D01*
X152590476Y-102750952D01*
X152495238Y-102703333D01*
X152304761Y-102703333D01*
X152209523Y-102750952D01*
X152161904Y-102798571D01*
X152114285Y-102893809D01*
X152638095Y-99782380D02*
X152161904Y-99782380D01*
X152114285Y-100258571D01*
X152161904Y-100210952D01*
X152257142Y-100163333D01*
X152495238Y-100163333D01*
X152590476Y-100210952D01*
X152638095Y-100258571D01*
X152685714Y-100353809D01*
X152685714Y-100591904D01*
X152638095Y-100687142D01*
X152590476Y-100734761D01*
X152495238Y-100782380D01*
X152257142Y-100782380D01*
X152161904Y-100734761D01*
X152114285Y-100687142D01*
X152590476Y-97575714D02*
X152590476Y-98242380D01*
X152352380Y-97194761D02*
X152114285Y-97909047D01*
X152733333Y-97909047D01*
X152066666Y-94702380D02*
X152685714Y-94702380D01*
X152352380Y-95083333D01*
X152495238Y-95083333D01*
X152590476Y-95130952D01*
X152638095Y-95178571D01*
X152685714Y-95273809D01*
X152685714Y-95511904D01*
X152638095Y-95607142D01*
X152590476Y-95654761D01*
X152495238Y-95702380D01*
X152209523Y-95702380D01*
X152114285Y-95654761D01*
X152066666Y-95607142D01*
X152114285Y-92257619D02*
X152161904Y-92210000D01*
X152257142Y-92162380D01*
X152495238Y-92162380D01*
X152590476Y-92210000D01*
X152638095Y-92257619D01*
X152685714Y-92352857D01*
X152685714Y-92448095D01*
X152638095Y-92590952D01*
X152066666Y-93162380D01*
X152685714Y-93162380D01*
X152685714Y-90622380D02*
X152114285Y-90622380D01*
X152400000Y-90622380D02*
X152400000Y-89622380D01*
X152304761Y-89765238D01*
X152209523Y-89860476D01*
X152114285Y-89908095D01*
D11*
%TO.C,*%
X172780000Y-90110000D02*
X170120000Y-90110000D01*
X172780000Y-107950000D02*
X172780000Y-90110000D01*
X170120000Y-107950000D02*
X170120000Y-90110000D01*
X172780000Y-107950000D02*
X170120000Y-107950000D01*
X172780000Y-109220000D02*
X172780000Y-110550000D01*
X172780000Y-110550000D02*
X171450000Y-110550000D01*
X157750000Y-90110000D02*
X156100000Y-90110000D01*
X156100000Y-90110000D02*
X156100000Y-110550000D01*
X156100000Y-110550000D02*
X161400000Y-110550000D01*
X161400000Y-110550000D02*
X161400000Y-90110000D01*
X161400000Y-90110000D02*
X159750000Y-90110000D01*
X153610000Y-90050000D02*
X153610000Y-110610000D01*
X153610000Y-110610000D02*
X163890000Y-110610000D01*
X163890000Y-110610000D02*
X163890000Y-90050000D01*
X163890000Y-90050000D02*
X153610000Y-90050000D01*
X159750000Y-90110000D02*
G75*
G02*
X157750000Y-90110000I-1000000J0D01*
G01*
X144720000Y-110550000D02*
X147380000Y-110550000D01*
X144720000Y-92710000D02*
X144720000Y-110550000D01*
X147380000Y-92710000D02*
X147380000Y-110550000D01*
X144720000Y-92710000D02*
X147380000Y-92710000D01*
X144720000Y-91440000D02*
X144720000Y-90110000D01*
X144720000Y-90110000D02*
X146050000Y-90110000D01*
X167142936Y-108485000D02*
X167597064Y-108485000D01*
X167142936Y-109955000D02*
X167597064Y-109955000D01*
X149902936Y-108485000D02*
X150357064Y-108485000D01*
X149902936Y-109955000D02*
X150357064Y-109955000D01*
X167142936Y-105945000D02*
X167597064Y-105945000D01*
X167142936Y-107415000D02*
X167597064Y-107415000D01*
X167142936Y-103405000D02*
X167597064Y-103405000D01*
X167142936Y-104875000D02*
X167597064Y-104875000D01*
X167142936Y-100865000D02*
X167597064Y-100865000D01*
X167142936Y-102335000D02*
X167597064Y-102335000D01*
X167142936Y-98325000D02*
X167597064Y-98325000D01*
X167142936Y-99795000D02*
X167597064Y-99795000D01*
X167142936Y-95785000D02*
X167597064Y-95785000D01*
X167142936Y-97255000D02*
X167597064Y-97255000D01*
X167142936Y-93245000D02*
X167597064Y-93245000D01*
X167142936Y-94715000D02*
X167597064Y-94715000D01*
X167142936Y-90705000D02*
X167597064Y-90705000D01*
X167142936Y-92175000D02*
X167597064Y-92175000D01*
X149902936Y-105945000D02*
X150357064Y-105945000D01*
X149902936Y-107415000D02*
X150357064Y-107415000D01*
X149902936Y-103405000D02*
X150357064Y-103405000D01*
X149902936Y-104875000D02*
X150357064Y-104875000D01*
X149902936Y-100865000D02*
X150357064Y-100865000D01*
X149902936Y-102335000D02*
X150357064Y-102335000D01*
X149902936Y-98325000D02*
X150357064Y-98325000D01*
X149902936Y-99795000D02*
X150357064Y-99795000D01*
X149902936Y-95785000D02*
X150357064Y-95785000D01*
X149902936Y-97255000D02*
X150357064Y-97255000D01*
X149902936Y-93245000D02*
X150357064Y-93245000D01*
X149902936Y-94715000D02*
X150357064Y-94715000D01*
X149902936Y-90705000D02*
X150357064Y-90705000D01*
X149902936Y-92175000D02*
X150357064Y-92175000D01*
D12*
%TD*%
M02*
